<svg width="100" height="100" viewBox="0 0 100 100" fill="none" xmlns="http://www.w3.org/2000/svg">
<path d="M81.25 12.5H71.875V9.375C71.875 8.5462 71.5458 7.75134 70.9597 7.16529C70.3737 6.57924 69.5788 6.25 68.75 6.25C67.9212 6.25 67.1263 6.57924 66.5403 7.16529C65.9542 7.75134 65.625 8.5462 65.625 9.375V12.5H34.375V9.375C34.375 8.5462 34.0458 7.75134 33.4597 7.16529C32.8737 6.57924 32.0788 6.25 31.25 6.25C30.4212 6.25 29.6263 6.57924 29.0403 7.16529C28.4542 7.75134 28.125 8.5462 28.125 9.375V12.5H18.75C17.0924 12.5 15.5027 13.1585 14.3306 14.3306C13.1585 15.5027 12.5 17.0924 12.5 18.75V81.25C12.5 82.9076 13.1585 84.4973 14.3306 85.6694C15.5027 86.8415 17.0924 87.5 18.75 87.5H81.25C82.9076 87.5 84.4973 86.8415 85.6694 85.6694C86.8415 84.4973 87.5 82.9076 87.5 81.25V18.75C87.5 17.0924 86.8415 15.5027 85.6694 14.3306C84.4973 13.1585 82.9076 12.5 81.25 12.5ZM28.125 18.75V21.875C28.125 22.7038 28.4542 23.4987 29.0403 24.0847C29.6263 24.6708 30.4212 25 31.25 25C32.0788 25 32.8737 24.6708 33.4597 24.0847C34.0458 23.4987 34.375 22.7038 34.375 21.875V18.75H65.625V21.875C65.625 22.7038 65.9542 23.4987 66.5403 24.0847C67.1263 24.6708 67.9212 25 68.75 25C69.5788 25 70.3737 24.6708 70.9597 24.0847C71.5458 23.4987 71.875 22.7038 71.875 21.875V18.75H81.25V31.25H18.75V18.75H28.125ZM81.25 81.25H18.75V37.5H81.25V81.25ZM66.2734 47.7891C66.564 48.0793 66.7945 48.4239 66.9517 48.8033C67.109 49.1827 67.19 49.5893 67.19 50C67.19 50.4107 67.109 50.8173 66.9517 51.1967C66.7945 51.5761 66.564 51.9207 66.2734 52.2109L47.5234 70.9609C47.2332 71.2515 46.8886 71.482 46.5092 71.6393C46.1298 71.7965 45.7232 71.8775 45.3125 71.8775C44.9018 71.8775 44.4952 71.7965 44.1158 71.6393C43.7364 71.482 43.3918 71.2515 43.1016 70.9609L33.7266 61.5859C33.1402 60.9996 32.8108 60.2043 32.8108 59.375C32.8108 58.5457 33.1402 57.7504 33.7266 57.1641C34.3129 56.5777 35.1082 56.2483 35.9375 56.2483C36.7668 56.2483 37.5621 56.5777 38.1484 57.1641L45.3125 64.332L61.8516 47.7891C62.1418 47.4985 62.4864 47.268 62.8658 47.1108C63.2452 46.9535 63.6518 46.8725 64.0625 46.8725C64.4732 46.8725 64.8798 46.9535 65.2592 47.1108C65.6386 47.268 65.9832 47.4985 66.2734 47.7891Z" fill="#FAAE1C"/>
</svg>
