<svg width="100" height="100" viewBox="0 0 100 100" fill="none" xmlns="http://www.w3.org/2000/svg">
<path d="M53.125 28.125V44.9414L67.3516 37.8281C68.0928 37.4572 68.9511 37.396 69.7375 37.6579C70.5239 37.9198 71.174 38.4833 71.5449 39.2246C71.9158 39.9659 71.9771 40.8241 71.7152 41.6105C71.4533 42.3969 70.8897 43.0471 70.1485 43.418L51.3985 52.793C50.9221 53.0313 50.3928 53.144 49.8607 53.1202C49.3286 53.0965 48.8114 52.9371 48.3582 52.6573C47.905 52.3775 47.5309 51.9865 47.2713 51.5214C47.0117 51.0563 46.8753 50.5326 46.875 50V28.125C46.875 27.2962 47.2043 26.5013 47.7903 25.9153C48.3764 25.3292 49.1712 25 50 25C50.8288 25 51.6237 25.3292 52.2097 25.9153C52.7958 26.5013 53.125 27.2962 53.125 28.125ZM50 84.375C43.2013 84.375 36.5552 82.3589 30.9023 78.5818C25.2494 74.8046 20.8434 69.4359 18.2417 63.1547C15.6399 56.8735 14.9592 49.9619 16.2855 43.2938C17.6119 36.6257 20.8858 30.5006 25.6932 25.6932C30.5007 20.8858 36.6257 17.6119 43.2938 16.2855C49.9619 14.9591 56.8736 15.6399 63.1548 18.2416C69.436 20.8434 74.8046 25.2493 78.5818 30.9023C82.359 36.5552 84.375 43.2013 84.375 50C84.375 50.8288 84.7043 51.6236 85.2903 52.2097C85.8764 52.7957 86.6712 53.125 87.5 53.125C88.3288 53.125 89.1237 52.7957 89.7097 52.2097C90.2958 51.6236 90.625 50.8288 90.625 50C90.625 41.9651 88.2424 34.1107 83.7785 27.4299C79.3145 20.7492 72.9698 15.5422 65.5465 12.4674C58.1233 9.39257 49.955 8.58806 42.0745 10.1556C34.194 11.7231 26.9553 15.5923 21.2738 21.2738C15.5923 26.9553 11.7231 34.194 10.1556 42.0744C8.58809 49.9549 9.3926 58.1233 12.4674 65.5465C15.5422 72.9697 20.7492 79.3145 27.43 83.7784C34.1107 88.2424 41.9652 90.625 50 90.625C50.8288 90.625 51.6237 90.2957 52.2097 89.7097C52.7958 89.1236 53.125 88.3288 53.125 87.5C53.125 86.6712 52.7958 85.8763 52.2097 85.2903C51.6237 84.7042 50.8288 84.375 50 84.375ZM90.5195 86.6953C90.6341 87.0947 90.6678 87.5129 90.6187 87.9255C90.5697 88.3381 90.4389 88.7367 90.2339 89.0981C90.029 89.4595 89.754 89.7765 89.4251 90.0303C89.0962 90.2842 88.72 90.47 88.3185 90.5767C87.9169 90.6835 87.4981 90.7091 87.0866 90.652C86.675 90.595 86.279 90.4565 85.9216 90.2445C85.5643 90.0326 85.2527 89.7516 85.0053 89.4178C84.7578 89.084 84.5794 88.7043 84.4805 88.3008C83.375 84.1484 79.4766 81.25 75 81.25C70.5235 81.25 66.625 84.1484 65.5195 88.3008C65.343 88.9669 64.9511 89.556 64.405 89.9763C63.8589 90.3967 63.1892 90.6247 62.5 90.625C62.2284 90.6243 61.958 90.5889 61.6953 90.5195C60.8945 90.3061 60.2113 89.7833 59.7959 89.0661C59.3806 88.3489 59.2671 87.4961 59.4805 86.6953C60.4941 82.9315 62.878 79.6824 66.1641 77.5859C64.4146 75.8383 63.2227 73.6111 62.7393 71.1859C62.2558 68.7608 62.5026 66.2467 63.4483 63.9619C64.3939 61.677 65.9961 59.7239 68.052 58.3498C70.1079 56.9757 72.5252 56.2422 74.9981 56.2422C77.4709 56.2422 79.8882 56.9757 81.9441 58.3498C84 59.7239 85.6022 61.677 86.5479 63.9619C87.4936 66.2467 87.7403 68.7608 87.2569 71.1859C86.7735 73.6111 85.5816 75.8383 83.832 77.5859C87.1196 79.6817 89.5049 82.9308 90.5195 86.6953ZM68.75 68.75C68.75 69.9861 69.1166 71.1945 69.8033 72.2223C70.4901 73.2501 71.4662 74.0512 72.6082 74.5242C73.7503 74.9973 75.007 75.1211 76.2193 74.8799C77.4317 74.6387 78.5454 74.0435 79.4194 73.1694C80.2935 72.2953 80.8888 71.1817 81.1299 69.9693C81.3711 68.7569 81.2473 67.5003 80.7743 66.3582C80.3012 65.2162 79.5001 64.2401 78.4723 63.5533C77.4445 62.8665 76.2362 62.5 75 62.5C73.3424 62.5 71.7527 63.1585 70.5806 64.3306C69.4085 65.5027 68.75 67.0924 68.75 68.75Z" fill="white"/>
</svg>
