<svg width="100" height="100" viewBox="0 0 100 100" fill="none" xmlns="http://www.w3.org/2000/svg">
<path d="M78.125 59.375C75.3628 59.3735 72.6787 60.2916 70.4961 61.9844L61.4687 54.9531C62.1502 53.3908 62.5013 51.7045 62.5 50C62.5 49.7109 62.5 49.4219 62.4687 49.1367L67.6367 47.414C69.2717 49.9357 71.7605 51.7839 74.6471 52.62C77.5338 53.4562 80.625 53.2244 83.3547 51.967C86.0843 50.7097 88.2696 48.511 89.5102 45.7737C90.7508 43.0364 90.9637 39.9437 90.1099 37.0623C89.256 34.1808 87.3927 31.7034 84.861 30.0839C82.3294 28.4643 79.2991 27.8111 76.3251 28.2439C73.3511 28.6766 70.6325 30.1663 68.6674 32.4402C66.7023 34.714 65.6222 37.6197 65.625 40.625C65.625 40.914 65.625 41.2031 65.6562 41.4883L60.4883 43.2109C59.3553 41.4595 57.8022 40.0194 55.9702 39.0219C54.1383 38.0244 52.0859 37.5012 50 37.5C49.3102 37.5014 48.6218 37.5589 47.9414 37.6719L45.2695 31.6406C47.5766 29.7972 49.1566 27.1965 49.7293 24.2995C50.3021 21.4025 49.8307 18.3962 48.3987 15.8136C46.9667 13.2309 44.6666 11.2386 41.906 10.1899C39.1454 9.14111 36.1026 9.10358 33.317 10.0839C30.5314 11.0643 28.1828 12.9992 26.6875 15.5458C25.1923 18.0923 24.6469 21.0861 25.148 23.9963C25.6492 26.9066 27.1645 29.5455 29.4254 31.4452C31.6864 33.3449 34.5469 34.3828 37.5 34.375C38.1897 34.3736 38.8781 34.3161 39.5586 34.2031L42.2304 40.2187C39.9646 42.012 38.392 44.5366 37.7814 47.3609C37.1708 50.1853 37.5601 53.134 38.8828 55.7031L28.8398 64.625C26.3124 62.9211 23.2503 62.1975 20.2276 62.5898C17.2048 62.9821 14.4289 64.4634 12.4202 66.7559C10.4114 69.0485 9.30771 71.995 9.31596 75.043C9.32422 78.0911 10.4439 81.0316 12.465 83.3132C14.4862 85.5949 17.2701 87.0611 20.2949 87.437C23.3197 87.8129 26.3778 87.0727 28.896 85.3552C31.4141 83.6376 33.2194 81.0607 33.9735 78.1073C34.7276 75.154 34.3787 72.027 32.9922 69.3125L43.0351 60.3906C45.2096 61.8547 47.7903 62.596 50.4104 62.509C53.0304 62.4221 55.5563 61.5113 57.6289 59.9062L66.6562 66.9375C65.9768 68.495 65.6258 70.1758 65.625 71.875C65.625 74.3473 66.3581 76.764 67.7316 78.8196C69.1051 80.8752 71.0574 82.4774 73.3414 83.4235C75.6255 84.3696 78.1388 84.6171 80.5636 84.1348C82.9884 83.6525 85.2156 82.462 86.9638 80.7138C88.712 78.9657 89.9025 76.7384 90.3848 74.3136C90.8671 71.8889 90.6196 69.3755 89.6735 67.0914C88.7274 64.8074 87.1252 62.8551 85.0696 61.4816C83.014 60.1081 80.5972 59.375 78.125 59.375ZM78.125 34.375C79.3611 34.375 80.5695 34.7415 81.5973 35.4283C82.6251 36.1151 83.4262 37.0912 83.8992 38.2332C84.3723 39.3753 84.496 40.6319 84.2549 41.8443C84.0137 43.0567 83.4185 44.1703 82.5444 45.0444C81.6703 45.9185 80.5567 46.5137 79.3443 46.7549C78.1319 46.9961 76.8752 46.8723 75.7332 46.3992C74.5912 45.9262 73.615 45.1251 72.9283 44.0973C72.2415 43.0695 71.875 41.8611 71.875 40.625C71.875 38.9674 72.5335 37.3777 73.7056 36.2056C74.8777 35.0335 76.4674 34.375 78.125 34.375ZM31.25 21.875C31.25 20.6389 31.6165 19.4305 32.3033 18.4027C32.99 17.3749 33.9662 16.5738 35.1082 16.1007C36.2502 15.6277 37.5069 15.5039 38.7193 15.7451C39.9317 15.9862 41.0453 16.5815 41.9194 17.4556C42.7935 18.3296 43.3887 19.4433 43.6299 20.6557C43.871 21.8681 43.7473 23.1247 43.2742 24.2668C42.8012 25.4088 42.0001 26.3849 40.9723 27.0717C39.9445 27.7584 38.7361 28.125 37.5 28.125C35.8424 28.125 34.2527 27.4665 33.0806 26.2944C31.9084 25.1223 31.25 23.5326 31.25 21.875ZM21.875 81.25C20.6388 81.25 19.4305 80.8834 18.4027 80.1967C17.3748 79.5099 16.5738 78.5338 16.1007 77.3918C15.6277 76.2497 15.5039 74.9931 15.7451 73.7807C15.9862 72.5683 16.5815 71.4547 17.4555 70.5806C18.3296 69.7065 19.4433 69.1112 20.6557 68.8701C21.868 68.6289 23.1247 68.7527 24.2667 69.2257C25.4088 69.6988 26.3849 70.4999 27.0717 71.5277C27.7584 72.5555 28.125 73.7639 28.125 75C28.125 76.6576 27.4665 78.2473 26.2944 79.4194C25.1223 80.5915 23.5326 81.25 21.875 81.25ZM43.75 50C43.75 48.7639 44.1165 47.5555 44.8033 46.5277C45.49 45.4999 46.4662 44.6988 47.6082 44.2257C48.7502 43.7527 50.0069 43.6289 51.2193 43.8701C52.4317 44.1112 53.5453 44.7065 54.4194 45.5806C55.2935 46.4546 55.8887 47.5683 56.1299 48.7807C56.371 49.9931 56.2473 51.2497 55.7742 52.3918C55.3012 53.5338 54.5001 54.5099 53.4723 55.1967C52.4445 55.8834 51.2361 56.25 50 56.25C48.3424 56.25 46.7527 55.5915 45.5805 54.4194C44.4084 53.2473 43.75 51.6576 43.75 50ZM78.125 78.125C76.8888 78.125 75.6805 77.7584 74.6526 77.0717C73.6248 76.3849 72.8238 75.4088 72.3507 74.2668C71.8777 73.1247 71.7539 71.8681 71.9951 70.6557C72.2362 69.4433 72.8315 68.3297 73.7056 67.4556C74.5796 66.5815 75.6933 65.9862 76.9057 65.7451C78.118 65.5039 79.3747 65.6277 80.5167 66.1007C81.6588 66.5738 82.6349 67.3749 83.3217 68.4027C84.0084 69.4305 84.375 70.6389 84.375 71.875C84.375 73.5326 83.7165 75.1223 82.5444 76.2944C81.3723 77.4665 79.7826 78.125 78.125 78.125Z" fill="#FAAE1C"/>
</svg>
