<svg width="100" height="100" viewBox="0 0 100 100" fill="none" xmlns="http://www.w3.org/2000/svg">
<path d="M81.25 31.25H68.75V21.875C68.75 16.9022 66.7746 12.1331 63.2583 8.61675C59.7419 5.10044 54.9728 3.125 50 3.125C45.0272 3.125 40.2581 5.10044 36.7417 8.61675C33.2254 12.1331 31.25 16.9022 31.25 21.875V31.25H18.75C17.0924 31.25 15.5027 31.9085 14.3306 33.0806C13.1585 34.2527 12.5 35.8424 12.5 37.5V81.25C12.5 82.9076 13.1585 84.4973 14.3306 85.6694C15.5027 86.8415 17.0924 87.5 18.75 87.5H81.25C82.9076 87.5 84.4973 86.8415 85.6694 85.6694C86.8415 84.4973 87.5 82.9076 87.5 81.25V37.5C87.5 35.8424 86.8415 34.2527 85.6694 33.0806C84.4973 31.9085 82.9076 31.25 81.25 31.25ZM37.5 21.875C37.5 18.5598 38.817 15.3804 41.1612 13.0362C43.5054 10.692 46.6848 9.375 50 9.375C53.3152 9.375 56.4946 10.692 58.8388 13.0362C61.183 15.3804 62.5 18.5598 62.5 21.875V31.25H37.5V21.875ZM81.25 81.25H18.75V37.5H81.25V81.25Z" fill="#FAAE1C"/>
</svg>
