<svg width="100" height="100" viewBox="0 0 100 100" fill="none" xmlns="http://www.w3.org/2000/svg">
<path d="M90.625 37.5C90.6266 37.2094 90.5872 36.9201 90.5078 36.6406L84.9024 17.0312C84.5256 15.7301 83.7381 14.5858 82.6574 13.7691C81.5767 12.9524 80.2608 12.5072 78.9063 12.5H21.0938C19.7392 12.5072 18.4233 12.9524 17.3426 13.7691C16.262 14.5858 15.4744 15.7301 15.0977 17.0312L9.4961 36.6406C9.4154 36.9199 9.37463 37.2093 9.375 37.5V43.75C9.375 46.1757 9.93977 48.5681 11.0246 50.7377C12.1094 52.9073 13.6844 54.7946 15.625 56.25V84.375C15.625 85.2038 15.9542 85.9987 16.5403 86.5847C17.1263 87.1708 17.9212 87.5 18.75 87.5H81.25C82.0788 87.5 82.8737 87.1708 83.4597 86.5847C84.0458 85.9987 84.375 85.2038 84.375 84.375V56.25C86.3156 54.7946 87.8906 52.9073 88.9754 50.7377C90.0602 48.5681 90.625 46.1757 90.625 43.75V37.5ZM21.0938 18.75H78.9063L83.3672 34.375H16.6445L21.0938 18.75ZM40.625 40.625H59.375V43.75C59.375 46.2364 58.3873 48.621 56.6291 50.3791C54.871 52.1373 52.4864 53.125 50 53.125C47.5136 53.125 45.129 52.1373 43.3709 50.3791C41.6127 48.621 40.625 46.2364 40.625 43.75V40.625ZM34.375 40.625V43.75C34.3744 45.3621 33.9582 46.9469 33.1664 48.3512C32.3746 49.7555 31.2341 50.9319 29.8549 51.7667C28.4758 52.6016 26.9047 53.0667 25.2934 53.1171C23.682 53.1676 22.0849 52.8016 20.6563 52.0547C20.4389 51.8855 20.1998 51.7462 19.9453 51.6406C18.6214 50.7931 17.5318 49.6262 16.7769 48.2474C16.0219 46.8685 15.6258 45.322 15.625 43.75V40.625H34.375ZM78.125 81.25H21.875V59.0625C22.9038 59.2699 23.9506 59.3746 25 59.375C27.4257 59.375 29.8181 58.8102 31.9877 57.7254C34.1573 56.6406 36.0446 55.0656 37.5 53.125C38.9554 55.0656 40.8427 56.6406 43.0123 57.7254C45.1819 58.8102 47.5743 59.375 50 59.375C52.4257 59.375 54.8181 58.8102 56.9877 57.7254C59.1573 56.6406 61.0446 55.0656 62.5 53.125C63.9554 55.0656 65.8427 56.6406 68.0123 57.7254C70.1819 58.8102 72.5743 59.375 75 59.375C76.0494 59.3746 77.0963 59.2699 78.125 59.0625V81.25ZM80.0508 51.6406C79.7997 51.7464 79.5634 51.8843 79.3477 52.0508C77.9192 52.7985 76.322 53.1652 74.7104 53.1154C73.0988 53.0656 71.5273 52.601 70.1478 51.7665C68.7682 50.932 67.6271 49.7558 66.8349 48.3515C66.0426 46.9472 65.6259 45.3623 65.625 43.75V40.625H84.375V43.75C84.3737 45.3223 83.977 46.8691 83.2214 48.248C82.4658 49.6269 81.3754 50.7935 80.0508 51.6406Z" fill="white"/>
</svg>
