<svg width="75" height="75" viewBox="0 0 75 75" fill="none" xmlns="http://www.w3.org/2000/svg">
<path d="M50.3906 35.1562C50.3906 37.7058 49.6346 40.198 48.2182 42.3179C46.8017 44.4377 44.7885 46.09 42.433 47.0656C40.0776 48.0413 37.4857 48.2966 34.9852 47.7992C32.4846 47.3018 30.1877 46.0741 28.3849 44.2713C26.5822 42.4685 25.3545 40.1716 24.8571 37.6711C24.3597 35.1705 24.615 32.5787 25.5906 30.2232C26.5663 27.8678 28.2185 25.8545 30.3384 24.4381C32.4582 23.0216 34.9505 22.2656 37.5 22.2656C40.9176 22.2695 44.1941 23.6289 46.6108 26.0455C49.0274 28.4621 50.3867 31.7386 50.3906 35.1562ZM67.9688 37.5C67.9688 43.5261 66.1818 49.417 62.8338 54.4275C59.4859 59.4381 54.7273 63.3433 49.1599 65.6495C43.5924 67.9556 37.4662 68.5589 31.5558 67.3833C25.6455 66.2077 20.2165 63.3058 15.9553 59.0447C11.6942 54.7835 8.79234 49.3545 7.6167 43.4442C6.44105 37.5338 7.04444 31.4075 9.35054 25.8401C11.6567 20.2727 15.5619 15.5141 20.5725 12.1662C25.583 8.81821 31.4738 7.03125 37.5 7.03125C45.5782 7.03978 53.3231 10.2526 59.0352 15.9648C64.7474 21.6769 67.9602 29.4218 67.9688 37.5ZM63.2812 37.5C63.2775 34.0299 62.574 30.5962 61.2127 27.4042C59.8515 24.2122 57.8605 21.3275 55.3588 18.9227C52.8571 16.5178 49.8962 14.6422 46.653 13.4079C43.4098 12.1736 39.951 11.6061 36.4834 11.7393C22.6846 12.2725 11.6807 23.7656 11.7187 37.5732C11.732 43.859 14.0503 49.9215 18.2344 54.6123C19.9383 52.1408 22.1028 50.0211 24.6094 48.3691C24.8231 48.228 25.0771 48.1607 25.3327 48.1777C25.5882 48.1946 25.8312 48.2948 26.0244 48.4629C29.2095 51.2178 33.28 52.734 37.4912 52.734C41.7024 52.734 45.7729 51.2178 48.958 48.4629C49.1512 48.2948 49.3942 48.1946 49.6497 48.1777C49.9053 48.1607 50.1593 48.228 50.373 48.3691C52.8827 50.0202 55.0503 52.14 56.7568 54.6123C60.9616 49.9044 63.2844 43.8123 63.2812 37.5Z" fill="#FAAE1C"/>
</svg>
